<svg version="1.1" id="Layer_1" xmlns="http://www.w3.org/2000/svg" xmlns:xlink="http://www.w3.org/1999/xlink" x="0px" y="0px"
	 width="100%" viewBox="0 0 1616 1620" enable-background="new 0 0 1616 1620" xml:space="preserve">
<path fill="#F0A820" opacity="1.000000" stroke="none" 
	d="
M1.000000,1620.000000 
	C1.000000,1080.449829 1.000000,540.899536 1.000000,1.000000 
	C90.363945,1.000000 179.728348,1.000000 269.546722,1.437118 
	C268.861786,9.828921 267.807648,17.796917 266.561737,25.734800 
	C265.127716,34.871140 263.364349,43.957680 262.036591,53.108303 
	C260.541046,63.415653 259.382416,73.771698 258.057281,84.104012 
	C256.719971,94.531616 255.143631,104.933907 254.063065,115.387711 
	C252.796371,127.642166 251.899277,139.936157 250.941116,152.220734 
	C250.213821,161.545227 249.521988,170.875656 249.042068,180.215134 
	C248.712891,186.620804 248.828506,193.048080 248.644958,199.462830 
	C248.485611,205.032150 248.269836,210.602844 247.914124,216.162384 
	C247.715332,219.269592 247.189331,222.356400 246.793976,225.450256 
	C246.607605,226.908707 246.179565,228.366119 246.208282,229.817123 
	C246.340668,236.504044 246.771286,243.188889 246.757309,249.873779 
	C246.742981,256.726562 246.121628,263.579559 246.154968,270.430542 
	C246.198685,279.407959 246.698914,288.382141 246.863510,297.360260 
	C247.027710,306.316650 246.803619,315.284424 247.144165,324.232178 
	C247.538605,334.595337 248.423141,344.938904 248.982758,355.296997 
	C249.460129,364.132843 249.576202,372.992065 250.221863,381.813873 
	C250.932007,391.516449 252.094131,401.185333 253.001328,410.874329 
	C253.476501,415.949188 253.659454,421.056244 254.277817,426.111633 
	C255.017242,432.156799 256.167908,438.150513 256.985657,444.187469 
	C258.563446,455.836029 259.994934,467.504364 261.563385,479.154205 
	C262.290924,484.558319 263.248901,489.931091 264.010010,495.331055 
	C265.046906,502.687195 265.692261,510.112366 267.052307,517.405945 
	C269.142303,528.614075 271.812897,539.712769 274.012573,550.902039 
	C275.379883,557.857300 275.987274,564.971802 277.540985,571.878662 
	C281.229919,588.277588 285.144073,604.629089 289.222839,620.935913 
	C292.899200,635.634033 296.873077,650.258484 300.818054,664.887878 
	C301.582916,667.724243 303.018311,670.378113 303.804352,673.210571 
	C307.069336,684.975586 309.959412,696.849792 313.453247,708.544617 
	C317.192566,721.061035 321.223846,733.502441 325.550842,745.828003 
	C330.593872,760.193176 336.033569,774.420898 341.415375,788.665039 
	C346.748108,802.779541 351.914429,816.969116 357.723022,830.888245 
	C363.456116,844.626465 369.930817,858.054321 376.026611,871.642395 
	C381.566528,883.991272 386.757477,896.505493 392.612396,908.701904 
	C398.387665,920.732544 404.686523,932.518005 410.964355,944.299744 
	C420.410858,962.028198 429.954132,979.706543 439.625366,997.313293 
	C444.555145,1006.288086 449.845001,1015.065430 454.998840,1023.916504 
	C455.496338,1024.770874 456.221771,1025.489136 456.776550,1026.314087 
	C461.582428,1033.460327 466.507355,1040.531250 471.124084,1047.798096 
	C474.464233,1053.055298 477.088501,1058.779053 480.564453,1063.935791 
	C487.173950,1073.741333 494.309479,1083.191650 500.954102,1092.974487 
	C506.949524,1101.801270 512.188538,1111.160889 518.459778,1119.777100 
	C529.452759,1134.880615 540.928467,1149.634766 552.306274,1164.455200 
	C557.811523,1171.626343 563.475525,1178.679565 569.212219,1185.667603 
	C574.044678,1191.554077 579.123169,1197.237793 584.026611,1203.066895 
	C591.573547,1212.038574 598.905090,1221.197144 606.629517,1230.011963 
	C612.495117,1236.705566 618.850159,1242.968994 624.947266,1249.461426 
	C627.874390,1252.578369 630.694702,1255.795166 633.588074,1258.944092 
	C639.771790,1265.673706 645.908569,1272.448120 652.188538,1279.086914 
	C655.918274,1283.029907 659.927002,1286.707520 663.733948,1290.579468 
	C670.171082,1297.126587 676.331299,1303.962402 683.000671,1310.260864 
	C692.898071,1319.607910 703.149292,1328.579834 713.228577,1337.734741 
	C721.555603,1345.298218 729.675171,1353.101807 738.217590,1360.412354 
	C745.016418,1366.231079 752.502319,1371.244751 759.329956,1377.032593 
	C764.434509,1381.359619 768.788086,1386.567017 773.842957,1390.960327 
	C776.639893,1393.391235 780.395630,1394.687500 783.363708,1396.959473 
	C791.502502,1403.189575 799.331482,1409.826294 807.504395,1416.009399 
	C822.777222,1427.564087 838.209045,1438.908569 853.567383,1450.350220 
	C855.293884,1451.636353 856.872986,1453.146729 858.691589,1454.278076 
	C865.441040,1458.476562 872.386597,1462.370117 879.029846,1466.726929 
	C892.391296,1475.489990 905.482483,1484.668335 918.918945,1493.312012 
	C927.516479,1498.842773 936.525696,1503.734619 945.362488,1508.892212 
	C954.580627,1514.271973 963.811829,1519.629150 973.040771,1524.990356 
	C975.875183,1526.636963 978.651428,1528.402222 981.575623,1529.871826 
	C987.550171,1532.874634 993.668640,1535.594116 999.611267,1538.656494 
	C1004.728210,1541.293335 1009.537903,1544.553589 1014.736938,1546.999023 
	C1031.008057,1554.651855 1047.430054,1561.983032 1063.732910,1569.569458 
	C1074.903076,1574.767334 1085.959717,1580.209106 1097.092773,1585.487671 
	C1100.981201,1587.331177 1104.872437,1589.208618 1108.891602,1590.728516 
	C1118.159058,1594.233276 1127.571289,1597.361206 1136.798828,1600.964233 
	C1143.566772,1603.606934 1150.061646,1606.945435 1156.814209,1609.632324 
	C1162.905396,1612.056396 1169.233887,1613.882446 1175.336792,1616.280029 
	C1176.804077,1616.856567 1177.792358,1618.652222 1178.548828,1619.933838 
	C1176.097534,1619.986938 1174.098267,1619.999268 1172.098999,1619.999268 
	C781.732666,1620.000000 391.366333,1620.000000 1.000000,1620.000000 
z"/>
<path fill="#F3BA1F" opacity="1.000000" stroke="none" 
	d="
M1179.000977,1619.887207 
	C1177.792358,1618.652222 1176.804077,1616.856567 1175.336792,1616.280029 
	C1169.233887,1613.882446 1162.905396,1612.056396 1156.814209,1609.632324 
	C1150.061646,1606.945435 1143.566772,1603.606934 1136.798828,1600.964233 
	C1127.571289,1597.361206 1118.159058,1594.233276 1108.891602,1590.728516 
	C1104.872437,1589.208618 1100.981201,1587.331177 1097.092773,1585.487671 
	C1085.959717,1580.209106 1074.903076,1574.767334 1063.732910,1569.569458 
	C1047.430054,1561.983032 1031.008057,1554.651855 1014.736938,1546.999023 
	C1009.537903,1544.553589 1004.728210,1541.293335 999.611267,1538.656494 
	C993.668640,1535.594116 987.550171,1532.874634 981.575623,1529.871826 
	C978.651428,1528.402222 975.875183,1526.636963 973.040771,1524.990356 
	C963.811829,1519.629150 954.580627,1514.271973 945.362488,1508.892212 
	C936.525696,1503.734619 927.516479,1498.842773 918.918945,1493.312012 
	C905.482483,1484.668335 892.391296,1475.489990 879.029846,1466.726929 
	C872.386597,1462.370117 865.441040,1458.476562 858.691589,1454.278076 
	C856.872986,1453.146729 855.293884,1451.636353 853.567383,1450.350220 
	C838.209045,1438.908569 822.777222,1427.564087 807.504395,1416.009399 
	C799.331482,1409.826294 791.502502,1403.189575 783.363708,1396.959473 
	C780.395630,1394.687500 776.639893,1393.391235 773.842957,1390.960327 
	C768.788086,1386.567017 764.434509,1381.359619 759.329956,1377.032593 
	C752.502319,1371.244751 745.016418,1366.231079 738.217590,1360.412354 
	C729.675171,1353.101807 721.555603,1345.298218 713.228577,1337.734741 
	C703.149292,1328.579834 692.898071,1319.607910 683.000671,1310.260864 
	C676.331299,1303.962402 670.171082,1297.126587 663.733948,1290.579468 
	C659.927002,1286.707520 655.918274,1283.029907 652.188538,1279.086914 
	C645.908569,1272.448120 639.771790,1265.673706 633.588074,1258.944092 
	C630.694702,1255.795166 627.874390,1252.578369 624.947266,1249.461426 
	C618.850159,1242.968994 612.495117,1236.705566 606.629517,1230.011963 
	C598.905090,1221.197144 591.573547,1212.038574 584.026611,1203.066895 
	C579.123169,1197.237793 574.044678,1191.554077 569.212219,1185.667603 
	C563.475525,1178.679565 557.811523,1171.626343 552.306274,1164.455200 
	C540.928467,1149.634766 529.452759,1134.880615 518.459778,1119.777100 
	C512.188538,1111.160889 506.949524,1101.801270 500.954102,1092.974487 
	C494.309479,1083.191650 487.173950,1073.741333 480.564453,1063.935791 
	C477.088501,1058.779053 474.464233,1053.055298 471.124084,1047.798096 
	C466.507355,1040.531250 461.582428,1033.460327 456.776550,1026.314087 
	C456.221771,1025.489136 455.496338,1024.770874 454.998840,1023.916504 
	C449.845001,1015.065430 444.555145,1006.288086 439.625366,997.313293 
	C429.954132,979.706543 420.410858,962.028198 410.964355,944.299744 
	C404.686523,932.518005 398.387665,920.732544 392.612396,908.701904 
	C386.757477,896.505493 381.566528,883.991272 376.026611,871.642395 
	C369.930817,858.054321 363.456116,844.626465 357.723022,830.888245 
	C351.914429,816.969116 346.748108,802.779541 341.415375,788.665039 
	C336.033569,774.420898 330.593872,760.193176 325.550842,745.828003 
	C321.223846,733.502441 317.192566,721.061035 313.453247,708.544617 
	C309.959412,696.849792 307.069336,684.975586 303.804352,673.210571 
	C303.018311,670.378113 301.582916,667.724243 300.818054,664.887878 
	C296.873077,650.258484 292.899200,635.634033 289.222839,620.935913 
	C285.144073,604.629089 281.229919,588.277588 277.540985,571.878662 
	C275.987274,564.971802 275.379883,557.857300 274.012573,550.902039 
	C271.812897,539.712769 269.142303,528.614075 267.052307,517.405945 
	C265.692261,510.112366 265.046906,502.687195 264.010010,495.331055 
	C263.248901,489.931091 262.290924,484.558319 261.563385,479.154205 
	C259.994934,467.504364 258.563446,455.836029 256.985657,444.187469 
	C256.167908,438.150513 255.017242,432.156799 254.277817,426.111633 
	C253.659454,421.056244 253.476501,415.949188 253.001328,410.874329 
	C252.094131,401.185333 250.932007,391.516449 250.221863,381.813873 
	C249.576202,372.992065 249.460129,364.132843 248.982758,355.296997 
	C248.423141,344.938904 247.538605,334.595337 247.144165,324.232178 
	C246.803619,315.284424 247.027710,306.316650 246.863510,297.360260 
	C246.698914,288.382141 246.198685,279.407959 246.154968,270.430542 
	C246.121628,263.579559 246.742981,256.726562 246.757309,249.873779 
	C246.771286,243.188889 246.340668,236.504044 246.208282,229.817123 
	C246.179565,228.366119 246.607605,226.908707 246.793976,225.450256 
	C247.189331,222.356400 247.715332,219.269592 247.914124,216.162384 
	C248.269836,210.602844 248.485611,205.032150 248.644958,199.462830 
	C248.828506,193.048080 248.712891,186.620804 249.042068,180.215134 
	C249.521988,170.875656 250.213821,161.545227 250.941116,152.220734 
	C251.899277,139.936157 252.796371,127.642166 254.063065,115.387711 
	C255.143631,104.933907 256.719971,94.531616 258.057281,84.104012 
	C259.382416,73.771698 260.541046,63.415653 262.036591,53.108303 
	C263.364349,43.957680 265.127716,34.871140 266.561737,25.734800 
	C267.807648,17.796917 268.861786,9.828921 270.000366,1.437118 
	C365.687561,1.000000 461.375122,1.000000 557.531372,1.442478 
	C557.847595,4.200601 558.359558,6.833403 557.430969,8.778488 
	C552.725891,18.633940 553.913025,29.621529 551.061340,39.797138 
	C550.129333,43.122730 548.749268,46.356453 548.145813,49.734329 
	C545.969116,61.917595 543.801086,74.111176 542.069458,86.363007 
	C539.824036,102.251251 537.957947,118.193901 536.010010,134.123077 
	C534.926819,142.981339 534.047913,151.864426 532.995300,160.726639 
	C532.628906,163.811432 531.836548,166.850449 531.552246,169.939224 
	C530.693604,179.269470 529.902527,188.608093 529.276794,197.956299 
	C529.091431,200.725540 529.524536,203.538300 529.705261,206.329132 
	C529.807983,207.914581 530.168823,209.507111 530.079163,211.077377 
	C529.465515,221.823196 528.455811,232.556335 528.189148,243.308823 
	C527.985535,251.518814 528.817993,259.749115 528.950378,267.974213 
	C529.100830,277.323853 528.772949,286.683624 529.029846,296.028625 
	C529.552551,315.043243 530.137390,334.060394 531.079651,353.057465 
	C531.559875,362.738525 532.748047,372.392303 533.846252,382.032196 
	C534.607727,388.716553 536.051270,395.329865 536.660461,402.023132 
	C537.298035,409.028839 536.794006,416.158783 537.705261,423.114410 
	C539.003479,433.023956 541.102051,442.830536 542.935242,452.666901 
	C543.478027,455.579437 544.434692,458.417267 544.933777,461.335175 
	C547.215454,474.675049 549.215698,488.065918 551.696472,501.367706 
	C553.057007,508.662994 555.322083,515.784729 556.907104,523.044189 
	C559.055908,532.886047 560.830505,542.809692 562.982727,552.650818 
	C564.467224,559.438782 566.319458,566.146301 567.541016,572.945923 
	C549.432129,573.023682 531.789001,572.434631 514.307251,575.976746 
	C462.207825,586.532959 418.216278,610.806763 384.456604,652.397095 
	C375.194733,663.807312 367.741180,676.377380 362.053131,690.456421 
	C376.916687,696.560486 391.459320,702.532776 406.161011,708.570374 
	C407.873871,705.228394 409.246674,702.398193 410.757812,699.643921 
	C412.278748,696.871887 413.719574,694.017395 415.567688,691.468994 
	C452.974823,639.886841 504.330414,618.220581 567.019653,621.317261 
	C573.066040,621.615967 579.027039,623.641907 585.020447,625.304871 
	C585.664917,628.954895 586.144470,632.214355 587.027100,635.360779 
	C587.647400,637.571960 588.967407,639.577698 589.714294,641.764221 
	C592.856018,650.962646 595.857422,660.209229 599.014954,669.402161 
	C599.653748,671.261719 600.950317,672.894775 601.593140,674.753540 
	C603.531677,680.358826 605.039917,686.124268 607.190125,691.642456 
	C610.553345,700.273682 614.305420,708.753357 617.508057,717.248047 
	C594.056885,709.244202 570.384888,706.698975 546.255981,710.180420 
	C476.408264,720.258728 422.863159,777.783020 418.243561,849.685791 
	C417.407349,862.701538 417.523468,875.818420 420.435028,888.544373 
	C423.525177,902.050903 427.834106,915.218750 434.175018,927.713440 
	C441.618011,942.379822 451.151703,955.510315 462.804718,966.894470 
	C472.451172,976.318359 483.254425,984.383057 495.400970,990.741882 
	C523.584900,1005.496399 553.227478,1012.041382 584.883667,1007.986267 
	C628.692627,1002.374268 663.312561,981.200439 689.160400,945.503418 
	C699.822937,930.777954 706.650085,914.247192 712.294617,897.080078 
	C716.821228,903.656616 720.858948,910.256775 725.227417,916.630310 
	C732.139282,926.714600 739.238403,936.671326 746.321655,946.637085 
	C753.989807,957.425476 761.402161,968.418030 769.529419,978.851562 
	C778.121399,989.881653 787.390259,1000.386780 796.429016,1011.065735 
	C802.307373,1018.010681 808.268311,1024.886597 814.254822,1031.738892 
	C820.856567,1039.295288 827.415588,1046.894165 834.201904,1054.282837 
	C842.036926,1062.813477 849.929504,1071.304810 858.114807,1079.495728 
	C865.356628,1086.742554 873.047363,1093.540283 880.516541,1100.561035 
	C889.523010,1109.026611 898.396179,1117.637573 907.532593,1125.960205 
	C914.588318,1132.387451 921.932373,1138.500488 929.202759,1144.689087 
	C933.729187,1148.541870 938.356323,1152.276489 942.939880,1156.062012 
	C949.015442,1161.079956 954.993835,1166.222534 961.209473,1171.060547 
	C964.468933,1173.597534 968.314209,1175.377930 971.600037,1177.886230 
	C979.323914,1183.782227 986.678284,1190.174927 994.532410,1195.884888 
	C1007.398926,1205.238892 1020.474976,1214.310547 1033.601196,1223.298950 
	C1039.854736,1227.581055 1046.419556,1231.409790 1052.857422,1235.421265 
	C1058.876953,1239.172363 1064.819458,1243.060181 1070.968750,1246.586426 
	C1078.604858,1250.964966 1086.503662,1254.886353 1094.129272,1259.282349 
	C1100.409180,1262.902466 1106.329956,1267.150635 1112.641357,1270.709839 
	C1119.244019,1274.432983 1126.129150,1277.654419 1132.879272,1281.117554 
	C1136.858398,1283.159058 1140.769531,1285.338257 1144.790283,1287.293091 
	C1157.739502,1293.588989 1170.624390,1300.032104 1183.729736,1305.987793 
	C1194.020752,1310.664795 1204.593628,1314.722900 1215.056030,1319.020630 
	C1224.950562,1323.084839 1234.791138,1327.295288 1244.789551,1331.087769 
	C1255.153442,1335.018677 1265.649048,1338.610840 1276.140503,1342.194336 
	C1288.512451,1346.420044 1300.872803,1350.702026 1313.368286,1354.535645 
	C1323.006836,1357.492798 1332.996216,1359.344360 1342.552856,1362.520142 
	C1351.528076,1365.502808 1360.373901,1368.257446 1369.877686,1369.407837 
	C1379.353516,1370.555054 1388.621094,1373.415894 1397.983521,1375.509399 
	C1413.448486,1378.967285 1428.829346,1382.891602 1444.408325,1385.724121 
	C1459.208984,1388.415039 1474.206787,1390.049683 1489.139893,1391.977051 
	C1500.475098,1393.440063 1511.840820,1394.673218 1523.201416,1395.931396 
	C1529.787109,1396.660645 1536.376953,1397.473633 1542.987427,1397.828979 
	C1553.971680,1398.419312 1564.972290,1398.740479 1575.969482,1399.049194 
	C1589.644409,1399.433105 1603.322998,1399.688965 1617.000000,1400.000000 
	C1617.000000,1473.020874 1617.000000,1546.041870 1616.546387,1619.526978 
	C1472.225586,1619.993408 1328.358276,1619.996094 1184.491089,1619.993286 
	C1182.661011,1619.993286 1180.831055,1619.924072 1179.000977,1619.887207 
z"/>
<path fill="#F6CB1E" opacity="1.000000" stroke="none" 
	d="
M617.892700,717.297241 
	C614.305420,708.753357 610.553345,700.273682 607.190125,691.642456 
	C605.039917,686.124268 603.531677,680.358826 601.593140,674.753540 
	C600.950317,672.894775 599.653748,671.261719 599.014954,669.402161 
	C595.857422,660.209229 592.856018,650.962646 589.714294,641.764221 
	C588.967407,639.577698 587.647400,637.571960 587.027100,635.360779 
	C586.144470,632.214355 585.664917,628.954895 585.414307,625.312378 
	C589.929504,626.094055 594.043640,627.307068 598.484192,628.616394 
	C604.391907,613.989807 610.254211,599.475708 616.245911,584.641235 
	C600.631470,577.880249 584.474060,574.766357 568.007324,572.889771 
	C566.319458,566.146301 564.467224,559.438782 562.982727,552.650818 
	C560.830505,542.809692 559.055908,532.886047 556.907104,523.044189 
	C555.322083,515.784729 553.057007,508.662994 551.696472,501.367706 
	C549.215698,488.065918 547.215454,474.675049 544.933777,461.335175 
	C544.434692,458.417267 543.478027,455.579437 542.935242,452.666901 
	C541.102051,442.830536 539.003479,433.023956 537.705261,423.114410 
	C536.794006,416.158783 537.298035,409.028839 536.660461,402.023132 
	C536.051270,395.329865 534.607727,388.716553 533.846252,382.032196 
	C532.748047,372.392303 531.559875,362.738525 531.079651,353.057465 
	C530.137390,334.060394 529.552551,315.043243 529.029846,296.028625 
	C528.772949,286.683624 529.100830,277.323853 528.950378,267.974213 
	C528.817993,259.749115 527.985535,251.518814 528.189148,243.308823 
	C528.455811,232.556335 529.465515,221.823196 530.079163,211.077377 
	C530.168823,209.507111 529.807983,207.914581 529.705261,206.329132 
	C529.524536,203.538300 529.091431,200.725540 529.276794,197.956299 
	C529.902527,188.608093 530.693604,179.269470 531.552246,169.939224 
	C531.836548,166.850449 532.628906,163.811432 532.995300,160.726639 
	C534.047913,151.864426 534.926819,142.981339 536.010010,134.123077 
	C537.957947,118.193901 539.824036,102.251251 542.069458,86.363007 
	C543.801086,74.111176 545.969116,61.917595 548.145813,49.734329 
	C548.749268,46.356453 550.129333,43.122730 551.061340,39.797138 
	C553.913025,29.621529 552.725891,18.633940 557.430969,8.778488 
	C558.359558,6.833403 557.847595,4.200601 558.000000,1.442478 
	C628.020874,1.000000 698.041809,1.000000 768.529053,1.399899 
	C768.906555,2.624489 768.918701,3.475224 768.713928,4.270090 
	C762.878113,26.922016 756.607544,49.472351 751.313477,72.249756 
	C747.866882,87.078842 745.752625,102.222832 743.201599,117.252914 
	C741.650208,126.393814 740.122070,135.554642 739.082520,144.762863 
	C737.286072,160.674759 735.889282,176.631607 734.302124,192.567337 
	C733.563354,199.984695 732.301636,207.383560 732.092896,214.813736 
	C731.502808,235.816727 731.125183,256.831055 731.071838,277.841949 
	C731.034851,292.424835 731.671509,307.009491 732.012939,321.593201 
	C732.028503,322.257660 732.088379,322.922028 732.149597,323.584412 
	C733.430359,337.436890 734.627930,351.297791 736.026001,365.138428 
	C737.074341,375.516907 738.126526,385.906586 739.638428,396.223663 
	C741.486755,408.836426 743.573547,421.425690 745.993835,433.940643 
	C750.020935,454.764740 754.125977,475.581573 758.731140,496.282928 
	C761.252747,507.618073 764.566284,518.804565 768.049255,529.892761 
	C775.757935,554.434448 783.381775,579.017517 791.861816,603.296753 
	C796.941467,617.840271 803.172241,632.025391 809.598022,646.045044 
	C819.635803,667.945496 830.023193,689.695862 840.763306,711.260437 
	C846.828186,723.437805 853.647522,735.262634 860.578979,746.978882 
	C867.676208,758.975403 875.225891,770.709290 882.764893,782.437744 
	C888.496765,791.354919 894.431824,800.145996 900.471558,808.857910 
	C902.282837,811.470581 904.750000,813.628479 906.931152,816.384033 
	C901.313599,836.793335 899.143311,857.119629 902.169922,877.781372 
	C909.552246,928.179138 935.303894,966.144409 979.700500,991.244812 
	C997.765503,1001.458191 1017.467651,1006.972473 1037.964233,1008.816040 
	C1057.635864,1010.585388 1077.064575,1007.889038 1096.017090,1002.485229 
	C1099.101929,1005.931519 1101.850220,1009.459717 1105.313477,1012.021057 
	C1114.237427,1018.621155 1123.389160,1024.925659 1132.613037,1031.104980 
	C1145.676636,1039.856445 1158.736938,1048.629395 1172.079468,1056.942627 
	C1183.357178,1063.969238 1194.948730,1070.508301 1206.560547,1076.977295 
	C1216.252319,1082.376587 1226.079590,1087.554199 1236.021362,1092.477905 
	C1246.887329,1097.859497 1257.879272,1103.003418 1268.952148,1107.946655 
	C1281.960938,1113.754028 1294.982544,1119.575073 1308.245605,1124.758545 
	C1320.901001,1129.704346 1333.834839,1133.953003 1346.718262,1138.294434 
	C1358.660889,1142.319092 1370.590332,1146.449341 1382.721680,1149.829346 
	C1397.882446,1154.053101 1413.221558,1157.649048 1428.525269,1161.344238 
	C1440.907959,1164.334229 1453.265503,1167.552612 1465.790405,1169.799316 
	C1481.907715,1172.690430 1498.132202,1175.137573 1514.399658,1176.995728 
	C1532.926025,1179.111938 1551.532104,1180.637451 1570.138184,1181.915405 
	C1585.732910,1182.986450 1601.377441,1183.332764 1617.000000,1184.000000 
	C1617.000000,1255.687622 1617.000000,1327.375122 1617.000000,1399.531372 
	C1603.322998,1399.688965 1589.644409,1399.433105 1575.969482,1399.049194 
	C1564.972290,1398.740479 1553.971680,1398.419312 1542.987427,1397.828979 
	C1536.376953,1397.473633 1529.787109,1396.660645 1523.201416,1395.931396 
	C1511.840820,1394.673218 1500.475098,1393.440063 1489.139893,1391.977051 
	C1474.206787,1390.049683 1459.208984,1388.415039 1444.408325,1385.724121 
	C1428.829346,1382.891602 1413.448486,1378.967285 1397.983521,1375.509399 
	C1388.621094,1373.415894 1379.353516,1370.555054 1369.877686,1369.407837 
	C1360.373901,1368.257446 1351.528076,1365.502808 1342.552856,1362.520142 
	C1332.996216,1359.344360 1323.006836,1357.492798 1313.368286,1354.535645 
	C1300.872803,1350.702026 1288.512451,1346.420044 1276.140503,1342.194336 
	C1265.649048,1338.610840 1255.153442,1335.018677 1244.789551,1331.087769 
	C1234.791138,1327.295288 1224.950562,1323.084839 1215.056030,1319.020630 
	C1204.593628,1314.722900 1194.020752,1310.664795 1183.729736,1305.987793 
	C1170.624390,1300.032104 1157.739502,1293.588989 1144.790283,1287.293091 
	C1140.769531,1285.338257 1136.858398,1283.159058 1132.879272,1281.117554 
	C1126.129150,1277.654419 1119.244019,1274.432983 1112.641357,1270.709839 
	C1106.329956,1267.150635 1100.409180,1262.902466 1094.129272,1259.282349 
	C1086.503662,1254.886353 1078.604858,1250.964966 1070.968750,1246.586426 
	C1064.819458,1243.060181 1058.876953,1239.172363 1052.857422,1235.421265 
	C1046.419556,1231.409790 1039.854736,1227.581055 1033.601196,1223.298950 
	C1020.474976,1214.310547 1007.398926,1205.238892 994.532410,1195.884888 
	C986.678284,1190.174927 979.323914,1183.782227 971.600037,1177.886230 
	C968.314209,1175.377930 964.468933,1173.597534 961.209473,1171.060547 
	C954.993835,1166.222534 949.015442,1161.079956 942.939880,1156.062012 
	C938.356323,1152.276489 933.729187,1148.541870 929.202759,1144.689087 
	C921.932373,1138.500488 914.588318,1132.387451 907.532593,1125.960205 
	C898.396179,1117.637573 889.523010,1109.026611 880.516541,1100.561035 
	C873.047363,1093.540283 865.356628,1086.742554 858.114807,1079.495728 
	C849.929504,1071.304810 842.036926,1062.813477 834.201904,1054.282837 
	C827.415588,1046.894165 820.856567,1039.295288 814.254822,1031.738892 
	C808.268311,1024.886597 802.307373,1018.010681 796.429016,1011.065735 
	C787.390259,1000.386780 778.121399,989.881653 769.529419,978.851562 
	C761.402161,968.418030 753.989807,957.425476 746.321655,946.637085 
	C739.238403,936.671326 732.139282,926.714600 725.227417,916.630310 
	C720.858948,910.256775 716.821228,903.656616 712.290955,896.681641 
	C718.922424,865.724365 717.755432,835.661865 706.888062,806.224060 
	C697.379883,780.468262 681.719299,759.089722 660.401672,741.757324 
	C647.526245,731.289001 633.237671,723.407532 617.892700,717.297241 
z"/>
<path fill="#F7DB58" opacity="1.000000" stroke="none" 
	d="
M1617.000000,590.000000 
	C1617.000000,653.020874 1617.000000,716.041809 1616.612915,779.519165 
	C1612.773071,779.958008 1609.298340,780.184082 1605.871826,779.875549 
	C1596.656860,779.046082 1587.476807,777.362183 1578.257080,777.152222 
	C1559.439453,776.723755 1541.078491,773.735046 1522.886841,769.200562 
	C1511.364868,766.328674 1499.673096,764.067444 1488.282349,760.758118 
	C1473.884155,756.575012 1459.468994,752.234680 1445.515381,746.796753 
	C1431.519287,741.342285 1417.982666,734.659119 1404.438965,728.112610 
	C1397.143677,724.586365 1390.209595,720.296692 1383.194336,716.210938 
	C1372.943848,710.241028 1362.686768,704.274414 1352.593872,698.045044 
	C1347.864014,695.125732 1343.355225,691.787781 1339.033325,688.285400 
	C1335.153442,685.141235 1331.666504,681.512085 1328.272461,677.864136 
	C1339.419434,671.974854 1350.300293,666.318359 1361.036011,660.737366 
	C1360.934448,659.938538 1360.973145,659.573120 1360.837158,659.292175 
	C1360.330811,658.246216 1359.776611,657.223022 1359.223877,656.200134 
	C1328.526489,599.401123 1284.094360,556.340637 1227.966675,524.978027 
	C1203.899902,511.530182 1178.389404,501.602692 1151.942871,493.462860 
	C1149.290283,487.266205 1146.465576,481.503326 1144.158203,475.540314 
	C1140.055664,464.937836 1135.948853,454.317657 1132.426880,443.514801 
	C1128.024780,430.012115 1124.180908,416.326447 1120.167969,402.698639 
	C1119.284424,399.697998 1118.573730,396.632446 1118.004639,393.555847 
	C1115.896729,382.158844 1113.901611,370.741028 1111.824341,359.338287 
	C1110.383789,351.431305 1108.429199,343.587494 1107.519165,335.622375 
	C1106.479980,326.525116 1106.436157,317.318054 1105.784302,308.171234 
	C1105.349121,302.062988 1104.226807,295.985504 1104.083740,289.878510 
	C1103.806152,278.024811 1103.959595,266.159790 1104.035767,254.300125 
	C1104.051636,251.836807 1104.673462,249.380264 1104.732056,246.913849 
	C1104.962036,237.231232 1104.647095,227.514053 1105.359863,217.870697 
	C1106.057983,208.424728 1107.773926,199.054855 1109.013184,189.647598 
	C1109.500610,185.947632 1109.601807,182.169418 1110.405396,178.543457 
	C1113.140991,166.198486 1116.154297,153.915390 1118.975098,141.588852 
	C1120.652100,134.261368 1121.921631,126.832504 1123.825684,119.567520 
	C1125.625244,112.701546 1127.834717,105.927086 1130.184937,99.224968 
	C1134.297485,87.497688 1138.466797,75.783058 1142.974854,64.204224 
	C1146.221436,55.865208 1149.957153,47.710194 1153.655518,39.555145 
	C1157.768433,30.486002 1162.063232,21.498865 1166.326294,12.498523 
	C1168.155762,8.636425 1170.105103,4.831107 1172.000000,1.000004 
	C1262.354248,1.000000 1352.708496,1.000000 1443.478760,1.347520 
	C1440.952881,3.942839 1437.922607,6.085067 1435.085327,8.458084 
	C1426.315430,15.793028 1417.189209,22.773302 1409.006836,30.720625 
	C1399.498047,39.956230 1390.270264,49.607941 1381.948975,59.909821 
	C1369.333130,75.528648 1357.622681,91.887260 1348.582153,109.935898 
	C1345.694946,115.700066 1343.302246,121.710327 1340.623291,127.580658 
	C1336.680908,136.219437 1332.215454,144.654861 1328.841187,153.507904 
	C1325.333740,162.710327 1322.295654,172.175323 1320.066895,181.761368 
	C1316.887451,195.436798 1314.403442,209.288513 1312.067383,223.139999 
	C1310.649780,231.545288 1309.714844,240.070755 1309.205444,248.580688 
	C1308.554810,259.450806 1307.817139,270.403107 1308.457642,281.240753 
	C1309.238770,294.456726 1310.995850,307.657776 1313.108276,320.739716 
	C1315.014893,332.546814 1317.635620,344.269135 1320.568726,355.870239 
	C1322.882568,365.022003 1326.001221,373.983185 1329.047119,382.932129 
	C1330.954346,388.535461 1333.173462,394.058533 1335.648315,399.435577 
	C1338.118408,404.802490 1342.010742,409.670166 1343.642212,415.236572 
	C1347.453247,428.240173 1355.568481,438.781158 1362.641724,449.793640 
	C1370.000732,461.251282 1378.785522,471.831787 1387.387451,482.438568 
	C1392.770386,489.076172 1398.799927,495.221405 1404.856567,501.269897 
	C1409.057129,505.464691 1413.791992,509.125519 1418.299072,513.012207 
	C1427.028442,520.539978 1434.908813,529.537903 1444.711182,535.215576 
	C1457.637085,542.702332 1469.111450,552.686157 1483.453979,557.852356 
	C1492.724243,561.191467 1501.497559,565.900757 1510.743774,569.318848 
	C1522.686523,573.733704 1534.734741,578.003906 1547.007690,581.343201 
	C1557.841431,584.291016 1569.011353,586.076599 1580.100098,587.983887 
	C1586.359497,589.060425 1592.751465,589.806946 1599.090088,589.855469 
	C1605.056030,589.901184 1611.027344,593.872131 1617.000000,590.000000 
z"/>
<path fill="#F7DE65" opacity="1.000000" stroke="none" 
	d="
M1617.000000,589.531372 
	C1611.027344,593.872131 1605.056030,589.901184 1599.090088,589.855469 
	C1592.751465,589.806946 1586.359497,589.060425 1580.100098,587.983887 
	C1569.011353,586.076599 1557.841431,584.291016 1547.007690,581.343201 
	C1534.734741,578.003906 1522.686523,573.733704 1510.743774,569.318848 
	C1501.497559,565.900757 1492.724243,561.191467 1483.453979,557.852356 
	C1469.111450,552.686157 1457.637085,542.702332 1444.711182,535.215576 
	C1434.908813,529.537903 1427.028442,520.539978 1418.299072,513.012207 
	C1413.791992,509.125519 1409.057129,505.464691 1404.856567,501.269897 
	C1398.799927,495.221405 1392.770386,489.076172 1387.387451,482.438568 
	C1378.785522,471.831787 1370.000732,461.251282 1362.641724,449.793640 
	C1355.568481,438.781158 1347.453247,428.240173 1343.642212,415.236572 
	C1342.010742,409.670166 1338.118408,404.802490 1335.648315,399.435577 
	C1333.173462,394.058533 1330.954346,388.535461 1329.047119,382.932129 
	C1326.001221,373.983185 1322.882568,365.022003 1320.568726,355.870239 
	C1317.635620,344.269135 1315.014893,332.546814 1313.108276,320.739716 
	C1310.995850,307.657776 1309.238770,294.456726 1308.457642,281.240753 
	C1307.817139,270.403107 1308.554810,259.450806 1309.205444,248.580688 
	C1309.714844,240.070755 1310.649780,231.545288 1312.067383,223.139999 
	C1314.403442,209.288513 1316.887451,195.436798 1320.066895,181.761368 
	C1322.295654,172.175323 1325.333740,162.710327 1328.841187,153.507904 
	C1332.215454,144.654861 1336.680908,136.219437 1340.623291,127.580658 
	C1343.302246,121.710327 1345.694946,115.700066 1348.582153,109.935898 
	C1357.622681,91.887260 1369.333130,75.528648 1381.948975,59.909821 
	C1390.270264,49.607941 1399.498047,39.956230 1409.006836,30.720625 
	C1417.189209,22.773302 1426.315430,15.793028 1435.085327,8.458084 
	C1437.922607,6.085067 1440.952881,3.942839 1443.947510,1.347520 
	C1501.633545,1.000000 1559.267090,1.000000 1617.000000,1.000000 
	C1617.000000,197.020889 1617.000000,393.041779 1617.000000,589.531372 
z"/>
<path fill="#F7D84D" opacity="1.000000" stroke="none" 
	d="
M1171.531372,1.000004 
	C1170.105103,4.831107 1168.155762,8.636425 1166.326294,12.498523 
	C1162.063232,21.498865 1157.768433,30.486002 1153.655518,39.555145 
	C1149.957153,47.710194 1146.221436,55.865208 1142.974854,64.204224 
	C1138.466797,75.783058 1134.297485,87.497688 1130.184937,99.224968 
	C1127.834717,105.927086 1125.625244,112.701546 1123.825684,119.567520 
	C1121.921631,126.832504 1120.652100,134.261368 1118.975098,141.588852 
	C1116.154297,153.915390 1113.140991,166.198486 1110.405396,178.543457 
	C1109.601807,182.169418 1109.500610,185.947632 1109.013184,189.647598 
	C1107.773926,199.054855 1106.057983,208.424728 1105.359863,217.870697 
	C1104.647095,227.514053 1104.962036,237.231232 1104.732056,246.913849 
	C1104.673462,249.380264 1104.051636,251.836807 1104.035767,254.300125 
	C1103.959595,266.159790 1103.806152,278.024811 1104.083740,289.878510 
	C1104.226807,295.985504 1105.349121,302.062988 1105.784302,308.171234 
	C1106.436157,317.318054 1106.479980,326.525116 1107.519165,335.622375 
	C1108.429199,343.587494 1110.383789,351.431305 1111.824341,359.338287 
	C1113.901611,370.741028 1115.896729,382.158844 1118.004639,393.555847 
	C1118.573730,396.632446 1119.284424,399.697998 1120.167969,402.698639 
	C1124.180908,416.326447 1128.024780,430.012115 1132.426880,443.514801 
	C1135.948853,454.317657 1140.055664,464.937836 1144.158203,475.540314 
	C1146.465576,481.503326 1149.290283,487.266205 1151.563721,493.465118 
	C1101.480347,480.116211 1051.088379,477.971954 1000.128174,485.183624 
	C999.022705,481.285706 997.805054,477.858551 996.911865,474.348816 
	C992.246216,456.015228 987.630432,437.668732 983.065308,419.309814 
	C980.988647,410.958405 978.662048,402.639160 977.180908,394.177216 
	C975.357727,383.760651 974.105164,373.231598 972.951233,362.713287 
	C970.838501,343.455933 968.355774,324.207825 967.207520,304.885712 
	C966.254761,288.855072 967.271729,272.717743 966.928040,256.638153 
	C966.373108,230.675552 968.497253,204.906204 972.076355,179.251678 
	C974.492310,161.934158 977.006042,144.593323 980.513733,127.475555 
	C983.936462,110.772041 988.838928,94.377190 992.801208,77.777489 
	C998.510498,53.858864 1007.041809,30.922644 1016.304199,8.214487 
	C1017.225830,5.955022 1017.451416,3.411624 1018.000000,0.999999 
	C1069.020874,1.000000 1120.041870,1.000000 1171.531372,1.000004 
z"/>
<path fill="#F7D74A" opacity="1.000000" stroke="none" 
	d="
M1617.000000,880.000000 
	C1617.000000,916.687561 1617.000000,953.375122 1616.545898,990.531372 
	C1609.822998,990.999939 1603.553589,991.065308 1597.286011,990.981995 
	C1590.536499,990.892334 1583.769775,990.921936 1577.045898,990.422668 
	C1570.302002,989.921997 1563.608765,988.771118 1556.880981,988.015747 
	C1543.890991,986.557068 1530.796387,985.752563 1517.921631,983.614319 
	C1502.432861,981.042053 1487.064087,977.637329 1471.761108,974.086304 
	C1456.199707,970.475464 1440.679443,966.603760 1425.325562,962.203125 
	C1405.117798,956.411316 1385.009888,950.200745 1365.828369,941.438660 
	C1348.052490,933.318726 1330.303711,925.136719 1312.631470,916.794617 
	C1304.275757,912.850464 1295.916016,908.832214 1287.932007,904.202515 
	C1274.590210,896.466003 1261.346191,888.521423 1248.441162,880.083252 
	C1236.963623,872.578552 1226.038574,864.232483 1214.795532,856.363831 
	C1209.668701,852.775818 1204.363037,849.443298 1199.031006,845.590576 
	C1198.211792,840.152588 1197.748169,835.068970 1196.747314,830.093445 
	C1190.571899,799.389893 1176.411621,772.960815 1154.032104,750.989807 
	C1136.349487,733.629822 1115.386353,721.840942 1091.861328,714.018066 
	C1090.749146,711.434387 1089.897339,709.050476 1088.482788,707.067993 
	C1084.063965,700.874634 1079.299805,694.926514 1074.917725,688.708313 
	C1069.689575,681.289429 1064.610596,673.759583 1059.663086,666.150330 
	C1053.619751,656.855347 1047.564331,647.556091 1041.908691,638.024536 
	C1035.234497,626.776672 1028.811646,615.369934 1022.633484,603.842468 
	C1020.248230,599.392029 1018.833984,594.421143 1017.323914,589.497498 
	C1032.860962,588.226074 1048.038330,586.797058 1063.247803,586.217346 
	C1070.289551,585.948975 1077.459106,586.933228 1084.456177,588.060913 
	C1097.016357,590.085205 1109.490112,592.646484 1122.011230,595.359619 
	C1124.713013,600.232239 1127.275024,604.811890 1130.119629,609.208618 
	C1137.180420,620.122009 1144.280884,631.012329 1151.563965,641.777588 
	C1153.658325,644.873230 1156.566162,647.405579 1158.857910,650.383301 
	C1162.677246,655.345825 1166.053711,660.665527 1170.061279,665.463196 
	C1176.916870,673.669922 1184.050049,681.648682 1191.189819,689.612732 
	C1197.920532,697.120239 1204.601807,704.691650 1211.695435,711.847839 
	C1217.414673,717.617615 1223.646484,722.890259 1229.776123,728.239746 
	C1238.776001,736.094055 1247.795044,743.932007 1256.984741,751.561340 
	C1263.100464,756.638611 1269.490112,761.390381 1275.827148,766.195312 
	C1282.232544,771.052063 1288.484253,776.170837 1295.241821,780.488220 
	C1302.972046,785.427063 1311.276367,789.457397 1319.166138,794.159424 
	C1328.531494,799.740845 1337.437256,806.153076 1347.051270,811.243835 
	C1362.577759,819.465088 1378.320435,827.347107 1394.352539,834.521729 
	C1406.399780,839.913208 1418.992432,844.115051 1431.440186,848.573242 
	C1440.759644,851.911072 1450.148193,855.117920 1459.663330,857.831360 
	C1470.928223,861.043640 1482.344238,863.736755 1493.728882,866.514771 
	C1501.696045,868.458923 1509.711792,870.208313 1517.723022,871.966614 
	C1522.375000,872.987671 1527.027832,874.104980 1531.739990,874.726379 
	C1537.552002,875.492859 1543.434937,875.704102 1549.271851,876.305176 
	C1562.446655,877.661804 1575.584717,879.545776 1588.790527,880.374573 
	C1598.148926,880.961853 1607.593750,880.174011 1617.000000,880.000000 
z"/>
<path fill="#F7D129" opacity="1.000000" stroke="none" 
	d="
M906.916565,815.994812 
	C904.750000,813.628479 902.282837,811.470581 900.471558,808.857910 
	C894.431824,800.145996 888.496765,791.354919 882.764893,782.437744 
	C875.225891,770.709290 867.676208,758.975403 860.578979,746.978882 
	C853.647522,735.262634 846.828186,723.437805 840.763306,711.260437 
	C830.023193,689.695862 819.635803,667.945496 809.598022,646.045044 
	C803.172241,632.025391 796.941467,617.840271 791.861816,603.296753 
	C783.381775,579.017517 775.757935,554.434448 768.049255,529.892761 
	C764.566284,518.804565 761.252747,507.618073 758.731140,496.282928 
	C754.125977,475.581573 750.020935,454.764740 745.993835,433.940643 
	C743.573547,421.425690 741.486755,408.836426 739.638428,396.223663 
	C738.126526,385.906586 737.074341,375.516907 736.026001,365.138428 
	C734.627930,351.297791 733.430359,337.436890 732.149597,323.584412 
	C732.088379,322.922028 732.028503,322.257660 732.012939,321.593201 
	C731.671509,307.009491 731.034851,292.424835 731.071838,277.841949 
	C731.125183,256.831055 731.502808,235.816727 732.092896,214.813736 
	C732.301636,207.383560 733.563354,199.984695 734.302124,192.567337 
	C735.889282,176.631607 737.286072,160.674759 739.082520,144.762863 
	C740.122070,135.554642 741.650208,126.393814 743.201599,117.252914 
	C745.752625,102.222832 747.866882,87.078842 751.313477,72.249756 
	C756.607544,49.472351 762.878113,26.922016 768.713928,4.270090 
	C768.918701,3.475224 768.906555,2.624489 768.997742,1.399899 
	C790.687561,1.000000 812.375122,1.000000 834.519043,1.383100 
	C829.419983,21.701601 823.399536,41.521400 818.409180,61.597267 
	C808.998169,99.457199 802.125244,137.792709 798.956116,176.728195 
	C797.276245,197.367569 794.830811,217.987610 794.227478,238.660080 
	C793.572937,261.082031 794.250366,283.570343 795.109070,306.000549 
	C795.837769,325.035278 797.305725,344.061035 799.089600,363.030273 
	C800.654419,379.670715 802.652222,396.301300 805.308838,412.799347 
	C807.811523,428.341644 811.104736,443.778748 814.635620,459.127441 
	C818.392151,475.457062 822.131287,491.849457 827.135376,507.820496 
	C836.019104,536.173706 845.440247,564.376831 855.448975,592.352112 
	C861.079041,608.088684 867.791870,623.502686 874.997192,638.593933 
	C883.649658,656.716003 892.956970,674.555237 902.696899,692.119751 
	C912.754456,710.256958 923.707214,727.896606 934.183472,745.803589 
	C936.333984,749.479553 938.109192,753.375183 939.934692,757.475281 
	C937.575317,760.464233 935.278259,763.099670 933.111938,765.838501 
	C921.203247,780.894165 912.399170,797.579102 906.916565,815.994812 
z"/>
<path fill="#F7D43A" opacity="1.000000" stroke="none" 
	d="
M1199.138428,845.994934 
	C1204.363037,849.443298 1209.668701,852.775818 1214.795532,856.363831 
	C1226.038574,864.232483 1236.963623,872.578552 1248.441162,880.083252 
	C1261.346191,888.521423 1274.590210,896.466003 1287.932007,904.202515 
	C1295.916016,908.832214 1304.275757,912.850464 1312.631470,916.794617 
	C1330.303711,925.136719 1348.052490,933.318726 1365.828369,941.438660 
	C1385.009888,950.200745 1405.117798,956.411316 1425.325562,962.203125 
	C1440.679443,966.603760 1456.199707,970.475464 1471.761108,974.086304 
	C1487.064087,977.637329 1502.432861,981.042053 1517.921631,983.614319 
	C1530.796387,985.752563 1543.890991,986.557068 1556.880981,988.015747 
	C1563.608765,988.771118 1570.302002,989.921997 1577.045898,990.422668 
	C1583.769775,990.921936 1590.536499,990.892334 1597.286011,990.981995 
	C1603.553589,991.065308 1609.822998,990.999939 1616.545898,991.000000 
	C1617.000000,1025.020874 1617.000000,1059.041870 1616.579834,1093.531372 
	C1607.959351,1093.892700 1599.738159,1094.116821 1591.562744,1093.607300 
	C1575.775635,1092.623535 1560.016113,1091.204468 1544.241699,1090.010986 
	C1538.289917,1089.560547 1532.261353,1089.673218 1526.385010,1088.767456 
	C1511.013672,1086.398315 1495.689819,1083.704590 1480.380615,1080.953979 
	C1469.795044,1079.052124 1459.181763,1077.187988 1448.730835,1074.681763 
	C1434.237793,1071.206055 1419.860596,1067.234863 1405.482178,1063.299072 
	C1396.684937,1060.891235 1387.845337,1058.527344 1379.259399,1055.482300 
	C1362.847412,1049.661743 1346.492432,1043.644653 1330.322632,1037.186768 
	C1316.810547,1031.790283 1303.439087,1025.979492 1290.295288,1019.741272 
	C1277.703125,1013.764954 1265.410522,1007.139832 1253.122192,1000.546387 
	C1240.691650,993.876770 1228.186035,987.293091 1216.153442,979.950256 
	C1201.438110,970.970276 1187.170532,961.255371 1172.746704,951.801208 
	C1171.676514,951.099731 1170.907349,949.939087 1170.096436,948.666626 
	C1185.762085,926.961304 1195.461182,903.195984 1198.199341,876.876587 
	C1199.262207,866.660706 1198.868530,856.293335 1199.138428,845.994934 
z"/>
<path fill="#F7D12C" opacity="1.000000" stroke="none" 
	d="
M1169.998169,948.991943 
	C1170.907349,949.939087 1171.676514,951.099731 1172.746704,951.801208 
	C1187.170532,961.255371 1201.438110,970.970276 1216.153442,979.950256 
	C1228.186035,987.293091 1240.691650,993.876770 1253.122192,1000.546387 
	C1265.410522,1007.139832 1277.703125,1013.764954 1290.295288,1019.741272 
	C1303.439087,1025.979492 1316.810547,1031.790283 1330.322632,1037.186768 
	C1346.492432,1043.644653 1362.847412,1049.661743 1379.259399,1055.482300 
	C1387.845337,1058.527344 1396.684937,1060.891235 1405.482178,1063.299072 
	C1419.860596,1067.234863 1434.237793,1071.206055 1448.730835,1074.681763 
	C1459.181763,1077.187988 1469.795044,1079.052124 1480.380615,1080.953979 
	C1495.689819,1083.704590 1511.013672,1086.398315 1526.385010,1088.767456 
	C1532.261353,1089.673218 1538.289917,1089.560547 1544.241699,1090.010986 
	C1560.016113,1091.204468 1575.775635,1092.623535 1591.562744,1093.607300 
	C1599.738159,1094.116821 1607.959351,1093.892700 1616.579834,1094.000000 
	C1617.000000,1123.687622 1617.000000,1153.375122 1617.000000,1183.531372 
	C1601.377441,1183.332764 1585.732910,1182.986450 1570.138184,1181.915405 
	C1551.532104,1180.637451 1532.926025,1179.111938 1514.399658,1176.995728 
	C1498.132202,1175.137573 1481.907715,1172.690430 1465.790405,1169.799316 
	C1453.265503,1167.552612 1440.907959,1164.334229 1428.525269,1161.344238 
	C1413.221558,1157.649048 1397.882446,1154.053101 1382.721680,1149.829346 
	C1370.590332,1146.449341 1358.660889,1142.319092 1346.718262,1138.294434 
	C1333.834839,1133.953003 1320.901001,1129.704346 1308.245605,1124.758545 
	C1294.982544,1119.575073 1281.960938,1113.754028 1268.952148,1107.946655 
	C1257.879272,1103.003418 1246.887329,1097.859497 1236.021362,1092.477905 
	C1226.079590,1087.554199 1216.252319,1082.376587 1206.560547,1076.977295 
	C1194.948730,1070.508301 1183.357178,1063.969238 1172.079468,1056.942627 
	C1158.736938,1048.629395 1145.676636,1039.856445 1132.613037,1031.104980 
	C1123.389160,1024.925659 1114.237427,1018.621155 1105.313477,1012.021057 
	C1101.850220,1009.459717 1099.101929,1005.931519 1096.339355,1002.304810 
	C1113.061523,996.292725 1128.492432,988.691833 1141.575439,977.418945 
	C1151.698608,968.696350 1160.570190,958.521301 1169.998169,948.991943 
z"/>
<path fill="#F3D650" opacity="1.000000" stroke="none" 
	d="
M1617.000000,879.531372 
	C1607.593750,880.174011 1598.148926,880.961853 1588.790527,880.374573 
	C1575.584717,879.545776 1562.446655,877.661804 1549.271851,876.305176 
	C1543.434937,875.704102 1537.552002,875.492859 1531.739990,874.726379 
	C1527.027832,874.104980 1522.375000,872.987671 1517.723022,871.966614 
	C1509.711792,870.208313 1501.696045,868.458923 1493.728882,866.514771 
	C1482.344238,863.736755 1470.928223,861.043640 1459.663330,857.831360 
	C1450.148193,855.117920 1440.759644,851.911072 1431.440186,848.573242 
	C1418.992432,844.115051 1406.399780,839.913208 1394.352539,834.521729 
	C1378.320435,827.347107 1362.577759,819.465088 1347.051270,811.243835 
	C1337.437256,806.153076 1328.531494,799.740845 1319.166138,794.159424 
	C1311.276367,789.457397 1302.972046,785.427063 1295.241821,780.488220 
	C1288.484253,776.170837 1282.232544,771.052063 1275.827148,766.195312 
	C1269.490112,761.390381 1263.100464,756.638611 1256.984741,751.561340 
	C1247.795044,743.932007 1238.776001,736.094055 1229.776123,728.239746 
	C1223.646484,722.890259 1217.414673,717.617615 1211.695435,711.847839 
	C1204.601807,704.691650 1197.920532,697.120239 1191.189819,689.612732 
	C1184.050049,681.648682 1176.916870,673.669922 1170.061279,665.463196 
	C1166.053711,660.665527 1162.677246,655.345825 1158.857910,650.383301 
	C1156.566162,647.405579 1153.658325,644.873230 1151.563965,641.777588 
	C1144.280884,631.012329 1137.180420,620.122009 1130.119629,609.208618 
	C1127.275024,604.811890 1124.713013,600.232239 1122.410522,595.348145 
	C1186.675537,612.962952 1235.939087,649.840942 1268.482056,708.300598 
	C1270.618408,707.246033 1272.409302,706.384827 1274.180054,705.484314 
	C1292.123901,696.358826 1310.064697,687.226990 1328.006226,678.096924 
	C1331.666504,681.512085 1335.153442,685.141235 1339.033325,688.285400 
	C1343.355225,691.787781 1347.864014,695.125732 1352.593872,698.045044 
	C1362.686768,704.274414 1372.943848,710.241028 1383.194336,716.210938 
	C1390.209595,720.296692 1397.143677,724.586365 1404.438965,728.112610 
	C1417.982666,734.659119 1431.519287,741.342285 1445.515381,746.796753 
	C1459.468994,752.234680 1473.884155,756.575012 1488.282349,760.758118 
	C1499.673096,764.067444 1511.364868,766.328674 1522.886841,769.200562 
	C1541.078491,773.735046 1559.439453,776.723755 1578.257080,777.152222 
	C1587.476807,777.362183 1596.656860,779.046082 1605.871826,779.875549 
	C1609.298340,780.184082 1612.773071,779.958008 1616.612915,779.987793 
	C1617.000000,813.020874 1617.000000,846.041809 1617.000000,879.531372 
z"/>
<path fill="#F7D232" opacity="1.000000" stroke="none" 
	d="
M940.057434,757.169495 
	C938.109192,753.375183 936.333984,749.479553 934.183472,745.803589 
	C923.707214,727.896606 912.754456,710.256958 902.696899,692.119751 
	C892.956970,674.555237 883.649658,656.716003 874.997192,638.593933 
	C867.791870,623.502686 861.079041,608.088684 855.448975,592.352112 
	C845.440247,564.376831 836.019104,536.173706 827.135376,507.820496 
	C822.131287,491.849457 818.392151,475.457062 814.635620,459.127441 
	C811.104736,443.778748 807.811523,428.341644 805.308838,412.799347 
	C802.652222,396.301300 800.654419,379.670715 799.089600,363.030273 
	C797.305725,344.061035 795.837769,325.035278 795.109070,306.000549 
	C794.250366,283.570343 793.572937,261.082031 794.227478,238.660080 
	C794.830811,217.987610 797.276245,197.367569 798.956116,176.728195 
	C802.125244,137.792709 808.998169,99.457199 818.409180,61.597267 
	C823.399536,41.521400 829.419983,21.701601 834.987671,1.383100 
	C853.020874,1.000000 871.041809,1.000000 889.530945,1.417784 
	C889.624023,4.122268 889.485840,6.478861 888.835205,8.684319 
	C884.656433,22.849634 879.879578,36.857738 876.227234,51.154552 
	C871.016846,71.550026 865.694885,91.990456 862.078369,112.701172 
	C857.495972,138.943604 854.089294,165.421463 851.103210,191.902390 
	C848.951172,210.987167 847.783020,230.225800 847.168579,249.427567 
	C846.672119,264.942963 847.316101,280.522339 848.070007,296.043457 
	C849.058899,316.404510 850.223267,336.776398 852.121094,357.067963 
	C853.661743,373.541077 856.203552,389.931549 858.675781,406.302185 
	C860.033447,415.292877 862.131348,424.173584 863.955933,433.091553 
	C866.511780,445.583771 868.788086,458.146362 871.806030,470.527191 
	C874.866211,483.081726 878.466797,495.518250 882.262390,507.873840 
	C884.075500,513.775879 886.887817,519.370972 889.032104,525.378784 
	C877.517029,533.085449 866.217529,540.518433 854.535278,548.203125 
	C876.710266,576.593201 898.053040,603.917786 919.229065,631.028931 
	C926.525269,626.330383 933.219421,622.019592 939.936096,618.121460 
	C940.431885,620.275085 940.587952,622.188293 941.425842,623.731262 
	C954.303284,647.445190 967.095154,671.208862 980.309082,694.735046 
	C984.983215,703.056885 990.737671,710.771973 995.674805,718.936768 
	C992.029663,720.611084 988.687500,722.068054 985.390991,723.621765 
	C968.054565,731.793396 953.400696,743.597717 940.057434,757.169495 
z"/>
<path fill="#F7D643" opacity="1.000000" stroke="none" 
	d="
M1017.531372,0.999999 
	C1017.451416,3.411624 1017.225830,5.955022 1016.304199,8.214487 
	C1007.041809,30.922644 998.510498,53.858864 992.801208,77.777489 
	C988.838928,94.377190 983.936462,110.772041 980.513733,127.475555 
	C977.006042,144.593323 974.492310,161.934158 972.076355,179.251678 
	C968.497253,204.906204 966.373108,230.675552 966.928040,256.638153 
	C967.271729,272.717743 966.254761,288.855072 967.207520,304.885712 
	C968.355774,324.207825 970.838501,343.455933 972.951233,362.713287 
	C974.105164,373.231598 975.357727,383.760651 977.180908,394.177216 
	C978.662048,402.639160 980.988647,410.958405 983.065308,419.309814 
	C987.630432,437.668732 992.246216,456.015228 996.911865,474.348816 
	C997.805054,477.858551 999.022705,481.285706 999.772034,485.312561 
	C998.305847,486.052399 997.130249,486.125519 996.015198,486.424377 
	C976.672852,491.607910 957.338074,496.819244 937.988159,501.632324 
	C936.833801,496.911133 935.692810,492.582153 934.552002,488.253143 
	C929.443359,468.867920 924.049683,449.551727 919.330139,430.072235 
	C916.367371,417.843964 914.090942,405.422424 912.107056,392.991791 
	C910.255554,381.390137 909.009460,369.680786 907.833740,357.984955 
	C906.068115,340.420227 904.391357,322.841003 903.094604,305.237213 
	C902.526245,297.521393 903.091675,289.727875 902.960510,281.972748 
	C902.736938,268.753113 902.029968,255.532196 902.173218,242.318832 
	C902.282593,232.223587 903.422058,222.141052 904.039673,212.048950 
	C904.258484,208.472168 904.027893,204.852188 904.458008,201.307159 
	C905.492065,192.783310 906.749084,184.285309 907.999695,175.789169 
	C910.766846,156.990707 912.925110,138.070755 916.566406,119.441711 
	C920.287842,100.402962 925.045837,81.532623 930.164490,62.811245 
	C934.892456,45.518490 940.712830,28.524887 946.020630,11.389785 
	C947.086365,7.949016 948.010559,4.464394 949.000000,0.999994 
	C971.687561,1.000000 994.375122,1.000000 1017.531372,0.999999 
z"/>
<path fill="#F7D43B" opacity="1.000000" stroke="none" 
	d="
M948.531311,0.999994 
	C948.010559,4.464394 947.086365,7.949016 946.020630,11.389785 
	C940.712830,28.524887 934.892456,45.518490 930.164490,62.811245 
	C925.045837,81.532623 920.287842,100.402962 916.566406,119.441711 
	C912.925110,138.070755 910.766846,156.990707 907.999695,175.789169 
	C906.749084,184.285309 905.492065,192.783310 904.458008,201.307159 
	C904.027893,204.852188 904.258484,208.472168 904.039673,212.048950 
	C903.422058,222.141052 902.282593,232.223587 902.173218,242.318832 
	C902.029968,255.532196 902.736938,268.753113 902.960510,281.972748 
	C903.091675,289.727875 902.526245,297.521393 903.094604,305.237213 
	C904.391357,322.841003 906.068115,340.420227 907.833740,357.984955 
	C909.009460,369.680786 910.255554,381.390137 912.107056,392.991791 
	C914.090942,405.422424 916.367371,417.843964 919.330139,430.072235 
	C924.049683,449.551727 929.443359,468.867920 934.552002,488.253143 
	C935.692810,492.582153 936.833801,496.911133 937.717407,501.868347 
	C921.389343,510.032715 905.318481,517.568848 889.247620,525.105042 
	C886.887817,519.370972 884.075500,513.775879 882.262390,507.873840 
	C878.466797,495.518250 874.866211,483.081726 871.806030,470.527191 
	C868.788086,458.146362 866.511780,445.583771 863.955933,433.091553 
	C862.131348,424.173584 860.033447,415.292877 858.675781,406.302185 
	C856.203552,389.931549 853.661743,373.541077 852.121094,357.067963 
	C850.223267,336.776398 849.058899,316.404510 848.070007,296.043457 
	C847.316101,280.522339 846.672119,264.942963 847.168579,249.427567 
	C847.783020,230.225800 848.951172,210.987167 851.103210,191.902390 
	C854.089294,165.421463 857.495972,138.943604 862.078369,112.701172 
	C865.694885,91.990456 871.016846,71.550026 876.227234,51.154552 
	C879.879578,36.857738 884.656433,22.849634 888.835205,8.684319 
	C889.485840,6.478861 889.624023,4.122268 889.999634,1.417784 
	C909.354248,1.000000 928.708435,1.000000 948.531311,0.999994 
z"/>
<path fill="#CAB696" opacity="1.000000" stroke="none" 
	d="
M1178.548828,1619.933838 
	C1180.831055,1619.924072 1182.661011,1619.993286 1184.491089,1619.993286 
	C1328.358276,1619.996094 1472.225586,1619.993408 1616.546387,1619.995605 
	C1616.833252,1620.333252 1616.684082,1620.943848 1616.497070,1620.955566 
	C1615.169067,1621.039062 1613.833374,1621.000000 1612.500000,1621.000000 
	C1075.333374,1621.000000 538.166687,1621.000000 1.000000,1620.500000 
	C391.366333,1620.000000 781.732666,1620.000000 1172.098999,1619.999268 
	C1174.098267,1619.999268 1176.097534,1619.986938 1178.548828,1619.933838 
z"/>
<path fill="#30281B" opacity="1.000000" stroke="none" 
	d="
M617.508057,717.248047 
	C633.237671,723.407532 647.526245,731.289001 660.401672,741.757324 
	C681.719299,759.089722 697.379883,780.468262 706.888062,806.224060 
	C717.755432,835.661865 718.922424,865.724365 711.950439,896.603638 
	C706.650085,914.247192 699.822937,930.777954 689.160400,945.503418 
	C663.312561,981.200439 628.692627,1002.374268 584.883667,1007.986267 
	C553.227478,1012.041382 523.584900,1005.496399 495.400970,990.741882 
	C483.254425,984.383057 472.451172,976.318359 462.804718,966.894470 
	C451.151703,955.510315 441.618011,942.379822 434.175018,927.713440 
	C427.834106,915.218750 423.525177,902.050903 420.435028,888.544373 
	C417.523468,875.818420 417.407349,862.701538 418.243561,849.685791 
	C422.863159,777.783020 476.408264,720.258728 546.255981,710.180420 
	C570.384888,706.698975 594.056885,709.244202 617.508057,717.248047 
M471.260742,768.685669 
	C450.191345,777.632141 436.794189,801.419128 445.077087,826.010132 
	C453.288513,850.389038 473.831848,862.157288 497.833740,857.574158 
	C529.061401,851.611328 541.951111,822.400574 532.326355,794.765259 
	C524.188660,771.399719 497.945190,758.920532 471.260742,768.685669 
z"/>
<path fill="#504730" opacity="1.000000" stroke="none" 
	d="
M567.541016,572.945923 
	C584.474060,574.766357 600.631470,577.880249 616.245911,584.641235 
	C610.254211,599.475708 604.391907,613.989807 598.484192,628.616394 
	C594.043640,627.307068 589.929504,626.094055 585.421570,624.873535 
	C579.027039,623.641907 573.066040,621.615967 567.019653,621.317261 
	C504.330414,618.220581 452.974823,639.886841 415.567688,691.468994 
	C413.719574,694.017395 412.278748,696.871887 410.757812,699.643921 
	C409.246674,702.398193 407.873871,705.228394 406.161011,708.570374 
	C391.459320,702.532776 376.916687,696.560486 362.053131,690.456421 
	C367.741180,676.377380 375.194733,663.807312 384.456604,652.397095 
	C418.216278,610.806763 462.207825,586.532959 514.307251,575.976746 
	C531.789001,572.434631 549.432129,573.023682 567.541016,572.945923 
z"/>
<path fill="#30281B" opacity="1.000000" stroke="none" 
	d="
M939.934692,757.475281 
	C953.400696,743.597717 968.054565,731.793396 985.390991,723.621765 
	C988.687500,722.068054 992.029663,720.611084 996.034790,718.895935 
	C1014.234314,711.844482 1032.460571,708.052490 1051.182007,709.026794 
	C1064.799072,709.735535 1078.307495,712.534424 1091.864258,714.401428 
	C1115.386353,721.840942 1136.349487,733.629822 1154.032104,750.989807 
	C1176.411621,772.960815 1190.571899,799.389893 1196.747314,830.093445 
	C1197.748169,835.068970 1198.211792,840.152588 1199.031006,845.590576 
	C1198.868530,856.293335 1199.262207,866.660706 1198.199341,876.876587 
	C1195.461182,903.195984 1185.762085,926.961304 1170.096436,948.666687 
	C1160.570190,958.521301 1151.698608,968.696350 1141.575439,977.418945 
	C1128.492432,988.691833 1113.061523,996.292725 1096.328613,1001.946350 
	C1077.064575,1007.889038 1057.635864,1010.585388 1037.964233,1008.816040 
	C1017.467651,1006.972473 997.765503,1001.458191 979.700500,991.244812 
	C935.303894,966.144409 909.552246,928.179138 902.169922,877.781372 
	C899.143311,857.119629 901.313599,836.793335 906.931152,816.384033 
	C912.399170,797.579102 921.203247,780.894165 933.111938,765.838501 
	C935.278259,763.099670 937.575317,760.464233 939.934692,757.475281 
M951.485596,769.934448 
	C928.858582,780.778198 918.496704,808.211121 929.003906,831.266663 
	C937.384155,849.654785 958.434204,862.610962 980.275818,858.096252 
	C1010.585815,851.831360 1026.145386,819.512390 1013.294434,791.832458 
	C1002.743225,769.106018 975.966614,759.582947 951.485596,769.934448 
z"/>
<path fill="#544824" opacity="1.000000" stroke="none" 
	d="
M889.032104,525.378784 
	C905.318481,517.568848 921.389343,510.032715 937.730957,502.260498 
	C957.338074,496.819244 976.672852,491.607910 996.015198,486.424377 
	C997.130249,486.125519 998.305847,486.052399 999.809448,485.745270 
	C1051.088379,477.971954 1101.480347,480.116211 1151.624756,493.808716 
	C1178.389404,501.602692 1203.899902,511.530182 1227.966675,524.978027 
	C1284.094360,556.340637 1328.526489,599.401123 1359.223877,656.200134 
	C1359.776611,657.223022 1360.330811,658.246216 1360.837158,659.292175 
	C1360.973145,659.573120 1360.934448,659.938538 1361.036011,660.737366 
	C1350.300293,666.318359 1339.419434,671.974854 1328.272461,677.864136 
	C1310.064697,687.226990 1292.123901,696.358826 1274.180054,705.484314 
	C1272.409302,706.384827 1270.618408,707.246033 1268.482056,708.300598 
	C1235.939087,649.840942 1186.675537,612.962952 1122.399414,594.971924 
	C1109.490112,592.646484 1097.016357,590.085205 1084.456177,588.060913 
	C1077.459106,586.933228 1070.289551,585.948975 1063.247803,586.217346 
	C1048.038330,586.797058 1032.860962,588.226074 1016.893555,589.491211 
	C1013.492798,590.125061 1010.847717,590.477356 1008.248413,591.040955 
	C984.051453,596.287964 960.990051,604.459167 939.913574,617.708801 
	C933.219421,622.019592 926.525269,626.330383 919.229065,631.028931 
	C898.053040,603.917786 876.710266,576.593201 854.535278,548.203125 
	C866.217529,540.518433 877.517029,533.085449 889.032104,525.378784 
z"/>
<path fill="#F6D53F" opacity="1.000000" stroke="none" 
	d="
M939.936096,618.121460 
	C960.990051,604.459167 984.051453,596.287964 1008.248413,591.040955 
	C1010.847717,590.477356 1013.492798,590.125061 1016.546997,589.681091 
	C1018.833984,594.421143 1020.248230,599.392029 1022.633484,603.842468 
	C1028.811646,615.369934 1035.234497,626.776672 1041.908691,638.024536 
	C1047.564331,647.556091 1053.619751,656.855347 1059.663086,666.150330 
	C1064.610596,673.759583 1069.689575,681.289429 1074.917725,688.708313 
	C1079.299805,694.926514 1084.063965,700.874634 1088.482788,707.067993 
	C1089.897339,709.050476 1090.749146,711.434387 1091.861328,714.018066 
	C1078.307495,712.534424 1064.799072,709.735535 1051.182007,709.026794 
	C1032.460571,708.052490 1014.234314,711.844482 996.358887,718.723267 
	C990.737671,710.771973 984.983215,703.056885 980.309082,694.735046 
	C967.095154,671.208862 954.303284,647.445190 941.425842,623.731262 
	C940.587952,622.188293 940.431885,620.275085 939.936096,618.121460 
z"/>
<path fill="#FEFEFE" opacity="1.000000" stroke="none" 
	d="
M471.600403,768.495422 
	C497.945190,758.920532 524.188660,771.399719 532.326355,794.765259 
	C541.951111,822.400574 529.061401,851.611328 497.833740,857.574158 
	C473.831848,862.157288 453.288513,850.389038 445.077087,826.010132 
	C436.794189,801.419128 450.191345,777.632141 471.600403,768.495422 
z"/>
<path fill="#FEFEFE" opacity="1.000000" stroke="none" 
	d="
M951.832886,769.782471 
	C975.966614,759.582947 1002.743225,769.106018 1013.294434,791.832458 
	C1026.145386,819.512390 1010.585815,851.831360 980.275818,858.096252 
	C958.434204,862.610962 937.384155,849.654785 929.003906,831.266663 
	C918.496704,808.211121 928.858582,780.778198 951.832886,769.782471 
z"/>
</svg>